<?xml version="1.0" encoding="UTF-8"?>
<svg xmlns="http://www.w3.org/2000/svg" onmouseup="{ if(window.parent.document.onmouseup) window.parent.document.onmouseup(arguments[0]);}" width="36" viewBox="0 0 36 36" id="S_AlertCircleFilled_18_N_2x" height="36" data-name="S_AlertCircleFilled_18_N@2x"><defs><style>
      .fill {
        fill: #707070;
      }

      
    </style></defs><path data-cppathid="10000" d="M18,2A16,16,0,1,0,34,18,16,16,0,0,0,18,2ZM15.4,6.775a.711.711,0,0,1,.337-.675,6.246,6.246,0,0,1,2.225-.458,6.861,6.861,0,0,1,2.232.344.777.777,0,0,1,.4.687v2.45c0,2.885-.577,10.891-.683,11.947a.527.527,0,0,1-.587.52H16.6a.568.568,0,0,1-.578-.473c-.1-1.364-.622-9.1-.622-11.891ZM18,28.85a2.574,2.574,0,0,1-2.8-2.631,2.66,2.66,0,0,1,2.8-2.7,2.632,2.632,0,0,1,2.8,2.7A2.574,2.574,0,0,1,18,28.85Z" class="fill"/></svg>